# xmcd
#
# Track frame offsets:
#	150
#	15593
#	41243
#	58126
#	73651
#	93472
#	117413
#	141781
#	168842
#
# Disc length: 2499 seconds
#
# Revision: 0
# Processed by: cddbd v1.5.2PL0 Copyright (c) Steve Scherf et al.
# Submitted via: audiograbber 1.83.01
#
DISCID=7d09c109
DTITLE=Golden Earring - Complete Studio Recordings [CD 17) - N.E.W.S. (NorthEas
DTITLE=tWestSouth) [remastered 2017]
DYEAR=1983
DGENRE=Rock
TTITLE0=Clear Night Moonlight
TTITLE1=When The Lady Smiles
TTITLE2=Enough Is Enough
TTITLE3=Fist In Glove
TTITLE4=Orwell's Year
TTITLE5=N.E.W.S.
TTITLE6=I'll Make It All Up To You
TTITLE7=Mission Impossible
TTITLE8=It's Over Now
EXTD=
EXTT0=
EXTT1=
EXTT2=
EXTT3=
EXTT4=
EXTT5=
EXTT6=
EXTT7=
EXTT8=
PLAYORDER=
